<svg width="180" height="80" viewBox="0 0 180 80" fill="none" xmlns="http://www.w3.org/2000/svg">
<rect width="180" height="80" fill="black"/>
<g clip-path="url(#clip0_5_2)">
<path d="M56.7523 12.9997L56.6737 28.672L50.7811 38.8772L39.79 56.6881L32 57.654L56.7523 12.9997Z" fill="url(#paint0_linear_5_2)"/>
<path d="M59.5707 12.9997L59.6627 28.6661L65.5556 38.8725L76.546 56.6862L84.3255 57.6585L59.5707 12.9997Z" fill="url(#paint1_linear_5_2)"/>
<path d="M122.565 58.302L122.657 42.6356L128.55 32.4292L139.541 14.6155L147.32 13.6433L122.565 58.302Z" fill="url(#paint2_linear_5_2)"/>
<path d="M119.747 58.3045L119.668 42.6323L113.776 32.4271L102.785 14.6162L94.9946 13.6503L119.747 58.3045Z" fill="url(#paint3_linear_5_2)"/>
<path d="M80.8776 38.417L88.9372 38.1554L104.934 57.4338L94.5 55.2393L80.8776 38.417Z" fill="url(#paint4_linear_5_2)"/>
<path d="M97.9943 26.5392C97.9943 33.9944 91.9507 40.038 84.4955 40.038C67.9969 40.038 88.3672 39.4746 88.9952 26.5392C88.0951 13.5257 37.9994 13.0404 84.4955 13.0404C91.9507 13.0404 97.9943 19.084 97.9943 26.5392Z" fill="url(#paint5_linear_5_2)"/>
</g>
<path d="M16.2539 72.6396V74H10.9697V72.6396H16.2539ZM11.4551 64.0469V74H9.73926V64.0469H11.4551ZM15.5635 68.2031V69.543H10.9697V68.2031H15.5635ZM16.2197 64.0469V65.4141H10.9697V64.0469H16.2197ZM19.125 68.1826V74H17.4775V66.6035H19.0293L19.125 68.1826ZM18.8311 70.0283L18.2979 70.0215C18.3024 69.4974 18.3753 69.0166 18.5166 68.5791C18.6624 68.1416 18.863 67.7656 19.1182 67.4512C19.3779 67.1367 19.6878 66.8952 20.0479 66.7266C20.4079 66.5534 20.8089 66.4668 21.251 66.4668C21.6064 66.4668 21.9277 66.5169 22.2148 66.6172C22.5065 66.7129 22.7549 66.8701 22.96 67.0889C23.1696 67.3076 23.3291 67.5924 23.4385 67.9434C23.5479 68.2897 23.6025 68.7158 23.6025 69.2217V74H21.9482V69.2148C21.9482 68.8594 21.8958 68.5791 21.791 68.374C21.6908 68.1644 21.5426 68.0163 21.3467 67.9297C21.1553 67.8385 20.916 67.793 20.6289 67.793C20.3464 67.793 20.0934 67.8522 19.8701 67.9707C19.6468 68.0892 19.4577 68.251 19.3027 68.4561C19.1523 68.6611 19.0361 68.8981 18.9541 69.167C18.8721 69.4359 18.8311 69.723 18.8311 70.0283ZM28.6748 66.6035V67.8066H24.5049V66.6035H28.6748ZM25.708 64.792H27.3555V71.9561C27.3555 72.1839 27.3874 72.3594 27.4512 72.4824C27.5195 72.6009 27.613 72.6807 27.7314 72.7217C27.8499 72.7627 27.9889 72.7832 28.1484 72.7832C28.2624 72.7832 28.3717 72.7764 28.4766 72.7627C28.5814 72.749 28.6657 72.7354 28.7295 72.7217L28.7363 73.9795C28.5996 74.0205 28.4401 74.057 28.2578 74.0889C28.0801 74.1208 27.875 74.1367 27.6426 74.1367C27.2643 74.1367 26.9294 74.0706 26.6377 73.9385C26.346 73.8018 26.1182 73.5807 25.9541 73.2754C25.79 72.9701 25.708 72.5645 25.708 72.0586V64.792ZM31.9561 72.3594L33.665 66.6035H34.7178L34.4307 68.3262L32.708 74H31.7646L31.9561 72.3594ZM30.9512 66.6035L32.2842 72.3867L32.3936 74H31.3408L29.3379 66.6035H30.9512ZM36.3174 72.3184L37.6094 66.6035H39.2158L37.2197 74H36.167L36.3174 72.3184ZM34.8955 66.6035L36.584 72.291L36.7959 74H35.8525L34.1094 68.3193L33.8223 66.6035H34.8955ZM42.1006 66.6035V74H40.4463V66.6035H42.1006ZM40.3369 64.6621C40.3369 64.4115 40.4189 64.2041 40.583 64.04C40.7516 63.8714 40.984 63.7871 41.2803 63.7871C41.5719 63.7871 41.8021 63.8714 41.9707 64.04C42.1393 64.2041 42.2236 64.4115 42.2236 64.6621C42.2236 64.9082 42.1393 65.1133 41.9707 65.2773C41.8021 65.4414 41.5719 65.5234 41.2803 65.5234C40.984 65.5234 40.7516 65.4414 40.583 65.2773C40.4189 65.1133 40.3369 64.9082 40.3369 64.6621ZM46.9268 72.8242C47.1956 72.8242 47.4372 72.7718 47.6514 72.667C47.8701 72.5576 48.0456 72.4072 48.1777 72.2158C48.3145 72.0244 48.3896 71.8034 48.4033 71.5527H49.9551C49.946 72.0312 49.8047 72.4665 49.5312 72.8584C49.2578 73.2503 48.8955 73.5625 48.4443 73.7949C47.9932 74.0228 47.4941 74.1367 46.9473 74.1367C46.3822 74.1367 45.89 74.041 45.4707 73.8496C45.0514 73.6536 44.7028 73.3848 44.4248 73.043C44.1468 72.7012 43.9372 72.307 43.7959 71.8604C43.6592 71.4137 43.5908 70.9352 43.5908 70.4248V70.1855C43.5908 69.6751 43.6592 69.1966 43.7959 68.75C43.9372 68.2988 44.1468 67.9023 44.4248 67.5605C44.7028 67.2188 45.0514 66.9521 45.4707 66.7607C45.89 66.5648 46.3799 66.4668 46.9404 66.4668C47.5329 66.4668 48.0524 66.5853 48.499 66.8223C48.9456 67.0547 49.2965 67.3805 49.5518 67.7998C49.8115 68.2145 49.946 68.6976 49.9551 69.249H48.4033C48.3896 68.9756 48.3213 68.7295 48.1982 68.5107C48.0798 68.2874 47.9111 68.1097 47.6924 67.9775C47.4782 67.8454 47.2207 67.7793 46.9199 67.7793C46.5872 67.7793 46.3115 67.8477 46.0928 67.9844C45.874 68.1165 45.7031 68.2988 45.5801 68.5312C45.457 68.7591 45.3682 69.0166 45.3135 69.3037C45.2633 69.5863 45.2383 69.8802 45.2383 70.1855V70.4248C45.2383 70.7301 45.2633 71.0264 45.3135 71.3135C45.3636 71.6006 45.4502 71.8581 45.5732 72.0859C45.7008 72.3092 45.874 72.4893 46.0928 72.626C46.3115 72.7581 46.5895 72.8242 46.9268 72.8242ZM52.8809 63.5V74H51.2266V63.5H52.8809ZM57.4746 66.6035L54.2549 70.1719L52.4912 71.9766L52.0605 70.582L53.3936 68.9346L55.4854 66.6035H57.4746ZM55.8408 74L53.4414 70.5273L54.4805 69.3721L57.748 74H55.8408ZM60.2842 63.5V74H58.6299V63.5H60.2842ZM66.5391 72.2568V66.6035H68.1934V74H66.6348L66.5391 72.2568ZM66.7715 70.7188L67.3252 70.7051C67.3252 71.2018 67.2705 71.6598 67.1611 72.0791C67.0518 72.4938 66.8831 72.8561 66.6553 73.166C66.4274 73.4714 66.1357 73.7106 65.7803 73.8838C65.4248 74.0524 64.9987 74.1367 64.502 74.1367C64.1419 74.1367 63.8115 74.0843 63.5107 73.9795C63.21 73.8747 62.9502 73.7129 62.7314 73.4941C62.5173 73.2754 62.3509 72.9906 62.2324 72.6396C62.1139 72.2887 62.0547 71.8695 62.0547 71.3818V66.6035H63.7021V71.3955C63.7021 71.6644 63.734 71.89 63.7979 72.0723C63.8617 72.25 63.9482 72.3936 64.0576 72.5029C64.167 72.6123 64.2946 72.6898 64.4404 72.7354C64.5863 72.7809 64.7412 72.8037 64.9053 72.8037C65.3747 72.8037 65.7438 72.7126 66.0127 72.5303C66.2861 72.3434 66.4798 72.0928 66.5938 71.7783C66.7122 71.4639 66.7715 71.1107 66.7715 70.7188ZM71.5156 68.1826V74H69.8682V66.6035H71.4199L71.5156 68.1826ZM71.2217 70.0283L70.6885 70.0215C70.693 69.4974 70.766 69.0166 70.9072 68.5791C71.0531 68.1416 71.2536 67.7656 71.5088 67.4512C71.7686 67.1367 72.0785 66.8952 72.4385 66.7266C72.7985 66.5534 73.1995 66.4668 73.6416 66.4668C73.9971 66.4668 74.3184 66.5169 74.6055 66.6172C74.8971 66.7129 75.1455 66.8701 75.3506 67.0889C75.5602 67.3076 75.7197 67.5924 75.8291 67.9434C75.9385 68.2897 75.9932 68.7158 75.9932 69.2217V74H74.3389V69.2148C74.3389 68.8594 74.2865 68.5791 74.1816 68.374C74.0814 68.1644 73.9333 68.0163 73.7373 67.9297C73.5459 67.8385 73.3066 67.793 73.0195 67.793C72.737 67.793 72.484 67.8522 72.2607 67.9707C72.0374 68.0892 71.8483 68.251 71.6934 68.4561C71.543 68.6611 71.4268 68.8981 71.3447 69.167C71.2627 69.4359 71.2217 69.723 71.2217 70.0283ZM82.4121 66.6035H83.9092V73.7949C83.9092 74.4603 83.7679 75.0254 83.4854 75.4902C83.2028 75.9551 82.8086 76.3083 82.3027 76.5498C81.7969 76.7959 81.2113 76.9189 80.5459 76.9189C80.2633 76.9189 79.9489 76.8779 79.6025 76.7959C79.2607 76.7139 78.9281 76.5817 78.6045 76.3994C78.2855 76.2217 78.0189 75.987 77.8047 75.6953L78.5771 74.7246C78.8415 75.0391 79.1331 75.2692 79.4521 75.415C79.7712 75.5609 80.1061 75.6338 80.457 75.6338C80.8353 75.6338 81.1566 75.5632 81.4209 75.4219C81.6898 75.2852 81.8971 75.0824 82.043 74.8135C82.1888 74.5446 82.2617 74.2165 82.2617 73.8291V68.2783L82.4121 66.6035ZM77.3877 70.3838V70.2402C77.3877 69.6797 77.4561 69.1693 77.5928 68.709C77.7295 68.2441 77.9255 67.8454 78.1807 67.5127C78.4359 67.1755 78.7458 66.918 79.1104 66.7402C79.4749 66.5579 79.8874 66.4668 80.3477 66.4668C80.8262 66.4668 81.234 66.5534 81.5713 66.7266C81.9131 66.8997 82.1979 67.1481 82.4258 67.4717C82.6536 67.7907 82.8314 68.1735 82.959 68.6201C83.0911 69.0622 83.1891 69.5544 83.2529 70.0967V70.5547C83.1937 71.0833 83.0934 71.5664 82.9521 72.0039C82.8109 72.4414 82.624 72.8197 82.3916 73.1387C82.1592 73.4577 81.8721 73.7038 81.5303 73.877C81.193 74.0501 80.7943 74.1367 80.334 74.1367C79.8828 74.1367 79.4749 74.0433 79.1104 73.8564C78.7503 73.6696 78.4404 73.4076 78.1807 73.0703C77.9255 72.7331 77.7295 72.3366 77.5928 71.8809C77.4561 71.4206 77.3877 70.9215 77.3877 70.3838ZM79.0352 70.2402V70.3838C79.0352 70.721 79.0671 71.0355 79.1309 71.3271C79.1992 71.6188 79.3018 71.8763 79.4385 72.0996C79.5798 72.3184 79.7575 72.4915 79.9717 72.6191C80.1904 72.7422 80.4479 72.8037 80.7441 72.8037C81.1315 72.8037 81.4482 72.7217 81.6943 72.5576C81.945 72.3936 82.1364 72.1725 82.2686 71.8945C82.4053 71.612 82.501 71.2975 82.5557 70.9512V69.7139C82.5283 69.445 82.4714 69.1943 82.3848 68.9619C82.3027 68.7295 82.1911 68.5267 82.0498 68.3535C81.9085 68.1758 81.7308 68.0391 81.5166 67.9434C81.3024 67.8431 81.0495 67.793 80.7578 67.793C80.4616 67.793 80.2041 67.8568 79.9854 67.9844C79.7666 68.112 79.5866 68.2874 79.4453 68.5107C79.3086 68.734 79.2061 68.9938 79.1377 69.29C79.0693 69.5863 79.0352 69.903 79.0352 70.2402ZM89.7676 71.9971C89.7676 71.833 89.7266 71.6849 89.6445 71.5527C89.5625 71.416 89.4053 71.293 89.1729 71.1836C88.945 71.0742 88.6077 70.974 88.1611 70.8828C87.7692 70.7962 87.4092 70.6937 87.0811 70.5752C86.7575 70.4521 86.4795 70.304 86.2471 70.1309C86.0146 69.9577 85.8346 69.7526 85.707 69.5156C85.5794 69.2786 85.5156 69.0052 85.5156 68.6953C85.5156 68.3945 85.5817 68.1097 85.7139 67.8408C85.846 67.5719 86.0352 67.335 86.2812 67.1299C86.5273 66.9248 86.8258 66.763 87.1768 66.6445C87.5322 66.526 87.9287 66.4668 88.3662 66.4668C88.986 66.4668 89.5169 66.5716 89.959 66.7812C90.4056 66.9863 90.7474 67.2666 90.9844 67.6221C91.2214 67.973 91.3398 68.3695 91.3398 68.8115H89.6924C89.6924 68.6156 89.6423 68.4333 89.542 68.2646C89.4463 68.0915 89.3005 67.9525 89.1045 67.8477C88.9085 67.7383 88.6624 67.6836 88.3662 67.6836C88.0837 67.6836 87.849 67.7292 87.6621 67.8203C87.4798 67.9069 87.3431 68.0208 87.252 68.1621C87.1654 68.3034 87.1221 68.4583 87.1221 68.627C87.1221 68.75 87.1449 68.8617 87.1904 68.9619C87.2406 69.0576 87.3226 69.1465 87.4365 69.2285C87.5505 69.306 87.7054 69.3789 87.9014 69.4473C88.1019 69.5156 88.3525 69.5817 88.6533 69.6455C89.2184 69.764 89.7038 69.9167 90.1094 70.1035C90.5195 70.2858 90.834 70.5228 91.0527 70.8145C91.2715 71.1016 91.3809 71.4661 91.3809 71.9082C91.3809 72.2363 91.3102 72.5371 91.1689 72.8105C91.0322 73.0794 90.8317 73.3141 90.5674 73.5146C90.3031 73.7106 89.9863 73.8633 89.6172 73.9727C89.2526 74.082 88.8424 74.1367 88.3867 74.1367C87.7168 74.1367 87.1494 74.0182 86.6846 73.7812C86.2197 73.5397 85.8665 73.2321 85.625 72.8584C85.388 72.4801 85.2695 72.0882 85.2695 71.6826H86.8623C86.8805 71.988 86.9648 72.2318 87.1152 72.4141C87.2702 72.5918 87.4616 72.7217 87.6895 72.8037C87.9219 72.8812 88.1611 72.9199 88.4072 72.9199C88.7035 72.9199 88.9518 72.8812 89.1523 72.8037C89.3529 72.7217 89.5055 72.6123 89.6104 72.4756C89.7152 72.3343 89.7676 72.1748 89.7676 71.9971ZM94.4775 68.0254V76.8438H92.8301V66.6035H94.3477L94.4775 68.0254ZM99.2969 70.2334V70.377C99.2969 70.9147 99.2331 71.4137 99.1055 71.874C98.9824 72.3298 98.7979 72.7285 98.5518 73.0703C98.3102 73.4076 98.0117 73.6696 97.6562 73.8564C97.3008 74.0433 96.8906 74.1367 96.4258 74.1367C95.9655 74.1367 95.5622 74.0524 95.2158 73.8838C94.874 73.7106 94.5846 73.4668 94.3477 73.1523C94.1107 72.8379 93.9193 72.4688 93.7734 72.0449C93.6322 71.6165 93.5319 71.1471 93.4727 70.6367V70.083C93.5319 69.5407 93.6322 69.0485 93.7734 68.6064C93.9193 68.1644 94.1107 67.7839 94.3477 67.4648C94.5846 67.1458 94.874 66.8997 95.2158 66.7266C95.5576 66.5534 95.9564 66.4668 96.4121 66.4668C96.877 66.4668 97.2894 66.5579 97.6494 66.7402C98.0094 66.918 98.3125 67.1732 98.5586 67.5059C98.8047 67.834 98.9893 68.2305 99.1123 68.6953C99.2354 69.1556 99.2969 69.6683 99.2969 70.2334ZM97.6494 70.377V70.2334C97.6494 69.8916 97.6175 69.5749 97.5537 69.2832C97.4899 68.987 97.3896 68.7272 97.2529 68.5039C97.1162 68.2806 96.9408 68.1074 96.7266 67.9844C96.5169 67.8568 96.264 67.793 95.9678 67.793C95.6761 67.793 95.4255 67.8431 95.2158 67.9434C95.0062 68.0391 94.8307 68.1735 94.6895 68.3467C94.5482 68.5199 94.4388 68.7227 94.3613 68.9551C94.2839 69.1829 94.2292 69.4313 94.1973 69.7002V71.0264C94.252 71.3545 94.3454 71.6553 94.4775 71.9287C94.6097 72.2021 94.7965 72.4209 95.0381 72.585C95.2842 72.7445 95.5986 72.8242 95.9814 72.8242C96.2777 72.8242 96.5306 72.7604 96.7402 72.6328C96.9499 72.5052 97.1208 72.3298 97.2529 72.1064C97.3896 71.8786 97.4899 71.6165 97.5537 71.3203C97.6175 71.0241 97.6494 70.7096 97.6494 70.377ZM102.353 68.0117V74H100.705V66.6035H102.277L102.353 68.0117ZM104.615 66.5557L104.602 68.0869C104.501 68.0687 104.392 68.055 104.273 68.0459C104.16 68.0368 104.046 68.0322 103.932 68.0322C103.649 68.0322 103.401 68.0732 103.187 68.1553C102.972 68.2327 102.792 68.3467 102.646 68.4971C102.505 68.6429 102.396 68.8206 102.318 69.0303C102.241 69.2399 102.195 69.4746 102.182 69.7344L101.806 69.7617C101.806 69.2969 101.851 68.8662 101.942 68.4697C102.034 68.0732 102.17 67.7246 102.353 67.4238C102.539 67.123 102.772 66.8883 103.05 66.7197C103.332 66.5511 103.658 66.4668 104.027 66.4668C104.128 66.4668 104.235 66.4759 104.349 66.4941C104.467 66.5124 104.556 66.5329 104.615 66.5557ZM105.155 70.3838V70.2266C105.155 69.6934 105.233 69.1989 105.388 68.7432C105.543 68.2829 105.766 67.8841 106.058 67.5469C106.354 67.2051 106.714 66.9408 107.138 66.7539C107.566 66.5625 108.049 66.4668 108.587 66.4668C109.129 66.4668 109.612 66.5625 110.036 66.7539C110.465 66.9408 110.827 67.2051 111.123 67.5469C111.419 67.8841 111.645 68.2829 111.8 68.7432C111.955 69.1989 112.032 69.6934 112.032 70.2266V70.3838C112.032 70.917 111.955 71.4115 111.8 71.8672C111.645 72.3229 111.419 72.7217 111.123 73.0635C110.827 73.4007 110.467 73.665 110.043 73.8564C109.619 74.0433 109.138 74.1367 108.601 74.1367C108.058 74.1367 107.573 74.0433 107.145 73.8564C106.721 73.665 106.361 73.4007 106.064 73.0635C105.768 72.7217 105.543 72.3229 105.388 71.8672C105.233 71.4115 105.155 70.917 105.155 70.3838ZM106.803 70.2266V70.3838C106.803 70.7165 106.837 71.0309 106.905 71.3271C106.974 71.6234 107.081 71.8831 107.227 72.1064C107.372 72.3298 107.559 72.5052 107.787 72.6328C108.015 72.7604 108.286 72.8242 108.601 72.8242C108.906 72.8242 109.17 72.7604 109.394 72.6328C109.621 72.5052 109.808 72.3298 109.954 72.1064C110.1 71.8831 110.207 71.6234 110.275 71.3271C110.348 71.0309 110.385 70.7165 110.385 70.3838V70.2266C110.385 69.8984 110.348 69.5885 110.275 69.2969C110.207 69.0007 110.098 68.7386 109.947 68.5107C109.801 68.2829 109.615 68.1051 109.387 67.9775C109.163 67.8454 108.897 67.7793 108.587 67.7793C108.277 67.7793 108.008 67.8454 107.78 67.9775C107.557 68.1051 107.372 68.2829 107.227 68.5107C107.081 68.7386 106.974 69.0007 106.905 69.2969C106.837 69.5885 106.803 69.8984 106.803 70.2266ZM113.495 66.6035H115.149V74.6426C115.149 75.1484 115.063 75.5745 114.89 75.9209C114.716 76.2718 114.461 76.5361 114.124 76.7139C113.787 76.8962 113.374 76.9873 112.887 76.9873C112.741 76.9873 112.59 76.9759 112.436 76.9531C112.276 76.9349 112.126 76.9076 111.984 76.8711L111.991 75.5859C112.087 75.6042 112.189 75.6178 112.299 75.627C112.404 75.6406 112.504 75.6475 112.6 75.6475C112.796 75.6475 112.96 75.6133 113.092 75.5449C113.224 75.4766 113.324 75.3695 113.393 75.2236C113.461 75.0778 113.495 74.8841 113.495 74.6426V66.6035ZM113.352 64.6621C113.352 64.4115 113.436 64.2041 113.604 64.04C113.773 63.8714 114.003 63.7871 114.295 63.7871C114.591 63.7871 114.821 63.8714 114.985 64.04C115.154 64.2041 115.238 64.4115 115.238 64.6621C115.238 64.9082 115.154 65.1133 114.985 65.2773C114.821 65.4414 114.591 65.5234 114.295 65.5234C114.003 65.5234 113.773 65.4414 113.604 65.2773C113.436 65.1133 113.352 64.9082 113.352 64.6621ZM120.188 74.1367C119.641 74.1367 119.146 74.0479 118.704 73.8701C118.267 73.6878 117.893 73.4349 117.583 73.1113C117.278 72.7878 117.043 72.4072 116.879 71.9697C116.715 71.5322 116.633 71.0605 116.633 70.5547V70.2812C116.633 69.7025 116.717 69.1784 116.886 68.709C117.054 68.2396 117.289 67.8385 117.59 67.5059C117.891 67.1686 118.246 66.9111 118.656 66.7334C119.066 66.5557 119.511 66.4668 119.989 66.4668C120.518 66.4668 120.98 66.5557 121.377 66.7334C121.773 66.9111 122.102 67.1618 122.361 67.4854C122.626 67.8044 122.822 68.1849 122.949 68.627C123.081 69.069 123.147 69.5566 123.147 70.0898V70.7939H117.433V69.6113H121.521V69.4814C121.511 69.1852 121.452 68.9072 121.343 68.6475C121.238 68.3877 121.076 68.1781 120.857 68.0186C120.639 67.859 120.347 67.7793 119.982 67.7793C119.709 67.7793 119.465 67.8385 119.251 67.957C119.041 68.071 118.866 68.2373 118.725 68.4561C118.583 68.6748 118.474 68.9391 118.396 69.249C118.324 69.5544 118.287 69.8984 118.287 70.2812V70.5547C118.287 70.8783 118.33 71.179 118.417 71.457C118.508 71.7305 118.64 71.9697 118.813 72.1748C118.987 72.3799 119.196 72.5417 119.442 72.6602C119.688 72.7741 119.969 72.8311 120.283 72.8311C120.68 72.8311 121.033 72.7513 121.343 72.5918C121.653 72.4323 121.922 72.2067 122.149 71.915L123.018 72.7559C122.858 72.9883 122.651 73.2116 122.396 73.4258C122.14 73.6354 121.828 73.8063 121.459 73.9385C121.094 74.0706 120.671 74.1367 120.188 74.1367ZM126.094 63.5V74H124.439V63.5H126.094ZM130.688 66.6035L127.468 70.1719L125.704 71.9766L125.273 70.582L126.606 68.9346L128.698 66.6035H130.688ZM129.054 74L126.654 70.5273L127.693 69.3721L130.961 74H129.054ZM135.124 66.6035V67.8066H130.954V66.6035H135.124ZM132.157 64.792H133.805V71.9561C133.805 72.1839 133.837 72.3594 133.9 72.4824C133.969 72.6009 134.062 72.6807 134.181 72.7217C134.299 72.7627 134.438 72.7832 134.598 72.7832C134.712 72.7832 134.821 72.7764 134.926 72.7627C135.031 72.749 135.115 72.7354 135.179 72.7217L135.186 73.9795C135.049 74.0205 134.889 74.057 134.707 74.0889C134.529 74.1208 134.324 74.1367 134.092 74.1367C133.714 74.1367 133.379 74.0706 133.087 73.9385C132.795 73.8018 132.567 73.5807 132.403 73.2754C132.239 72.9701 132.157 72.5645 132.157 72.0586V64.792ZM136.464 73.1797C136.464 72.9245 136.55 72.7103 136.724 72.5371C136.897 72.3594 137.132 72.2705 137.428 72.2705C137.729 72.2705 137.963 72.3594 138.132 72.5371C138.305 72.7103 138.392 72.9245 138.392 73.1797C138.392 73.4349 138.305 73.6491 138.132 73.8223C137.963 73.9954 137.729 74.082 137.428 74.082C137.132 74.082 136.897 73.9954 136.724 73.8223C136.55 73.6491 136.464 73.4349 136.464 73.1797ZM146.868 72.6875V74H140.196V72.8721L143.437 69.3379C143.792 68.9368 144.072 68.5905 144.277 68.2988C144.482 68.0072 144.626 67.7451 144.708 67.5127C144.795 67.2757 144.838 67.0456 144.838 66.8223C144.838 66.5078 144.779 66.2321 144.66 65.9951C144.546 65.7536 144.378 65.5645 144.154 65.4277C143.931 65.2865 143.66 65.2158 143.341 65.2158C142.972 65.2158 142.662 65.2956 142.411 65.4551C142.16 65.6146 141.971 65.8356 141.844 66.1182C141.716 66.3962 141.652 66.7152 141.652 67.0752H140.005C140.005 66.4964 140.137 65.9678 140.401 65.4893C140.666 65.0062 141.049 64.6234 141.55 64.3408C142.051 64.0537 142.655 63.9102 143.361 63.9102C144.027 63.9102 144.592 64.0218 145.057 64.2451C145.521 64.4684 145.875 64.7852 146.116 65.1953C146.362 65.6055 146.485 66.0908 146.485 66.6514C146.485 66.9613 146.435 67.2689 146.335 67.5742C146.235 67.8796 146.091 68.1849 145.904 68.4902C145.722 68.791 145.506 69.0941 145.255 69.3994C145.004 69.7002 144.729 70.0055 144.428 70.3154L142.274 72.6875H146.868ZM154.641 68.1895V69.8164C154.641 70.5957 154.563 71.2611 154.408 71.8125C154.258 72.3594 154.039 72.8037 153.752 73.1455C153.465 73.4873 153.121 73.738 152.72 73.8975C152.323 74.057 151.879 74.1367 151.387 74.1367C150.995 74.1367 150.63 74.0866 150.293 73.9863C149.96 73.8861 149.66 73.7288 149.391 73.5146C149.122 73.3005 148.892 73.0247 148.7 72.6875C148.513 72.3457 148.368 71.9378 148.263 71.4639C148.162 70.9899 148.112 70.4408 148.112 69.8164V68.1895C148.112 67.4056 148.19 66.7448 148.345 66.207C148.5 65.6647 148.721 65.2249 149.008 64.8877C149.295 64.5459 149.637 64.2975 150.033 64.1426C150.434 63.9876 150.881 63.9102 151.373 63.9102C151.77 63.9102 152.134 63.9603 152.467 64.0605C152.804 64.1562 153.105 64.3089 153.369 64.5186C153.638 64.7282 153.866 65.0016 154.053 65.3389C154.244 65.6715 154.39 66.0749 154.49 66.5488C154.59 67.0182 154.641 67.5651 154.641 68.1895ZM152.993 70.0488V67.9434C152.993 67.5469 152.97 67.1982 152.925 66.8975C152.879 66.5921 152.811 66.3346 152.72 66.125C152.633 65.9108 152.524 65.7376 152.392 65.6055C152.259 65.4688 152.109 65.3708 151.94 65.3115C151.772 65.2477 151.583 65.2158 151.373 65.2158C151.118 65.2158 150.89 65.266 150.689 65.3662C150.489 65.4619 150.32 65.6169 150.184 65.8311C150.047 66.0452 149.942 66.3278 149.869 66.6787C149.801 67.0251 149.767 67.4466 149.767 67.9434V70.0488C149.767 70.4499 149.789 70.8031 149.835 71.1084C149.881 71.4137 149.949 71.6758 150.04 71.8945C150.131 72.1087 150.241 72.2865 150.368 72.4277C150.5 72.5645 150.651 72.6647 150.819 72.7285C150.993 72.7923 151.182 72.8242 151.387 72.8242C151.646 72.8242 151.877 72.7741 152.077 72.6738C152.278 72.5736 152.446 72.4141 152.583 72.1953C152.72 71.972 152.822 71.6826 152.891 71.3271C152.959 70.9717 152.993 70.5456 152.993 70.0488ZM162.782 72.6875V74H156.11V72.8721L159.351 69.3379C159.706 68.9368 159.986 68.5905 160.191 68.2988C160.396 68.0072 160.54 67.7451 160.622 67.5127C160.709 67.2757 160.752 67.0456 160.752 66.8223C160.752 66.5078 160.693 66.2321 160.574 65.9951C160.46 65.7536 160.292 65.5645 160.068 65.4277C159.845 65.2865 159.574 65.2158 159.255 65.2158C158.886 65.2158 158.576 65.2956 158.325 65.4551C158.075 65.6146 157.885 65.8356 157.758 66.1182C157.63 66.3962 157.566 66.7152 157.566 67.0752H155.919C155.919 66.4964 156.051 65.9678 156.315 65.4893C156.58 65.0062 156.963 64.6234 157.464 64.3408C157.965 64.0537 158.569 63.9102 159.275 63.9102C159.941 63.9102 160.506 64.0218 160.971 64.2451C161.436 64.4684 161.789 64.7852 162.03 65.1953C162.276 65.6055 162.399 66.0908 162.399 66.6514C162.399 66.9613 162.349 67.2689 162.249 67.5742C162.149 67.8796 162.005 68.1849 161.818 68.4902C161.636 68.791 161.42 69.0941 161.169 69.3994C160.918 69.7002 160.643 70.0055 160.342 70.3154L158.188 72.6875H162.782ZM166.002 68.2783H166.986C167.369 68.2783 167.686 68.2122 167.937 68.0801C168.192 67.9479 168.381 67.7656 168.504 67.5332C168.627 67.3008 168.688 67.0342 168.688 66.7334C168.688 66.4189 168.632 66.1501 168.518 65.9268C168.408 65.6989 168.24 65.5234 168.012 65.4004C167.788 65.2773 167.504 65.2158 167.157 65.2158C166.866 65.2158 166.601 65.2751 166.364 65.3936C166.132 65.5075 165.947 65.6715 165.811 65.8857C165.674 66.0954 165.605 66.346 165.605 66.6377H163.951C163.951 66.109 164.09 65.6396 164.368 65.2295C164.646 64.8193 165.024 64.498 165.503 64.2656C165.986 64.0286 166.528 63.9102 167.13 63.9102C167.772 63.9102 168.333 64.0173 168.812 64.2314C169.295 64.4411 169.671 64.7555 169.939 65.1748C170.208 65.5941 170.343 66.1136 170.343 66.7334C170.343 67.016 170.277 67.3031 170.145 67.5947C170.012 67.8864 169.816 68.153 169.557 68.3945C169.297 68.6315 168.973 68.8252 168.586 68.9756C168.199 69.1214 167.75 69.1943 167.239 69.1943H166.002V68.2783ZM166.002 69.5635V68.6611H167.239C167.823 68.6611 168.319 68.7295 168.729 68.8662C169.144 69.0029 169.481 69.1921 169.741 69.4336C170.001 69.6706 170.19 69.9417 170.309 70.2471C170.432 70.5524 170.493 70.876 170.493 71.2178C170.493 71.6826 170.409 72.0973 170.24 72.4619C170.076 72.8219 169.841 73.1273 169.536 73.3779C169.231 73.6286 168.873 73.8177 168.463 73.9453C168.057 74.0729 167.615 74.1367 167.137 74.1367C166.708 74.1367 166.298 74.0775 165.906 73.959C165.514 73.8405 165.163 73.665 164.854 73.4326C164.544 73.1956 164.298 72.9017 164.115 72.5508C163.938 72.1953 163.849 71.7852 163.849 71.3203H165.496C165.496 71.6165 165.564 71.8786 165.701 72.1064C165.842 72.3298 166.038 72.5052 166.289 72.6328C166.544 72.7604 166.836 72.8242 167.164 72.8242C167.51 72.8242 167.809 72.7627 168.06 72.6396C168.31 72.5166 168.502 72.3343 168.634 72.0928C168.771 71.8512 168.839 71.5596 168.839 71.2178C168.839 70.8304 168.764 70.516 168.613 70.2744C168.463 70.0329 168.249 69.8551 167.971 69.7412C167.693 69.6227 167.365 69.5635 166.986 69.5635H166.002Z" fill="white"/>
<defs>
<linearGradient id="paint0_linear_5_2" x1="60.0449" y1="14.8249" x2="35.2927" y2="59.4791" gradientUnits="userSpaceOnUse">
<stop stop-color="#4C88BD"/>
<stop offset="1" stop-color="#76F1F1"/>
</linearGradient>
<linearGradient id="paint1_linear_5_2" x1="56.2845" y1="14.8213" x2="81.0392" y2="59.4801" gradientUnits="userSpaceOnUse">
<stop stop-color="#4C88BD"/>
<stop offset="1" stop-color="#76F1F1"/>
</linearGradient>
<linearGradient id="paint2_linear_5_2" x1="119.279" y1="56.4804" x2="144.034" y2="11.8217" gradientUnits="userSpaceOnUse">
<stop stop-color="#4C88BD"/>
<stop offset="1" stop-color="#76F1F1"/>
</linearGradient>
<linearGradient id="paint3_linear_5_2" x1="123.039" y1="56.4794" x2="98.2872" y2="11.8252" gradientUnits="userSpaceOnUse">
<stop stop-color="#4C88BD"/>
<stop offset="1" stop-color="#76F1F1"/>
</linearGradient>
<linearGradient id="paint4_linear_5_2" x1="82.6099" y1="36.1148" x2="101.438" y2="59.3652" gradientUnits="userSpaceOnUse">
<stop stop-color="#76F1F1"/>
<stop offset="1" stop-color="#4C88BD"/>
</linearGradient>
<linearGradient id="paint5_linear_5_2" x1="81.3735" y1="13.0404" x2="81.3735" y2="40.038" gradientUnits="userSpaceOnUse">
<stop stop-color="#4C88BD"/>
<stop offset="1" stop-color="#76F1F1"/>
</linearGradient>
<clipPath id="clip0_5_2">
<rect width="115.32" height="51.48" fill="white" transform="translate(32 10)"/>
</clipPath>
</defs>
</svg>
